<svg xmlns="http://www.w3.org/2000/svg" xmlns:svg="http://www.w3.org/2000/svg" id="svg5386" width="36" height="36" version="1.1" viewBox="0 0 36 36"><defs id="defs5388"><filter style="color-interpolation-filters:sRGB" id="filter922" width="1.36" height="1.36" x="-.18" y="-.18"><feGaussianBlur id="feGaussianBlur924" stdDeviation="1.95"/></filter></defs><metadata id="metadata5391"/><g id="layer1" transform="translate(0,-1016.3622)"><rect id="rect828" width="26" height="26" x="5" y="1023.362" rx="9.455" ry="9.455" transform="matrix(1.0180615,0,0,1.0180615,-0.325107,-18.71823)" style="display:inline;opacity:.15;fill:#000;fill-opacity:1;stroke:none;stroke-width:.98225904;stroke-linecap:round;stroke-linejoin:miter;stroke-miterlimit:4;stroke-dasharray:none;stroke-dashoffset:0;stroke-opacity:1;filter:url(#filter922)"/><rect style="display:inline;opacity:.75;fill:none;fill-opacity:1;stroke:#000;stroke-width:1;stroke-linecap:round;stroke-linejoin:miter;stroke-miterlimit:4;stroke-dasharray:none;stroke-dashoffset:0;stroke-opacity:1" id="rect4164-4-3" width="23" height="23" x="6.5" y="1022.862" rx="8.5" ry="8.5"/><rect id="rect825" width="22" height="22" x="7" y="1023.362" rx="8" ry="8" style="display:inline;opacity:.95;fill:#323232;fill-opacity:1;stroke:none;stroke-width:.99999994;stroke-linecap:round;stroke-linejoin:miter;stroke-miterlimit:4;stroke-dasharray:none;stroke-dashoffset:0;stroke-opacity:1"/><path style="display:inline;opacity:.1;fill:#fff;fill-opacity:1;stroke:none;stroke-width:1;stroke-linecap:round;stroke-linejoin:miter;stroke-miterlimit:4;stroke-dasharray:none;stroke-dashoffset:0;stroke-opacity:1" id="rect4164" d="m 15,1023.3622 c -4.432,0 -8,3.568 -8,8 v 6 c 0,4.432 3.568,8 8,8 h 6 c 4.432,0 8,-3.568 8,-8 v -6 c 0,-4.432 -3.568,-8 -8,-8 z m 0,1 h 6 c 3.878,0 7,3.122 7,7 v 6 c 0,3.878 -3.122,7 -7,7 h -6 c -3.878,0 -7,-3.122 -7,-7 v -6 c 0,-3.878 3.122,-7 7,-7 z"/></g></svg>