<svg xmlns="http://www.w3.org/2000/svg" xmlns:svg="http://www.w3.org/2000/svg" id="svg51" width="48" height="48" version="1.1" viewBox="0 0 12.7 12.7"><metadata id="metadata55"/><defs id="defs7"><linearGradient id="a" x1="48.979" x2="48.979" y1="92.935" y2="105.64" gradientTransform="translate(-42.629,-92.94)" gradientUnits="userSpaceOnUse"><stop id="stop2" offset="0" stop-color="#716ffb"/><stop id="stop4" offset="1" stop-color="#6c6af2"/></linearGradient></defs><rect style="fill:url(#a);fill-rule:evenodd;paint-order:stroke fill markers" id="rect9" width="12.7" height="12.7" x="0" y="-.005" rx="0"/><g style="stroke-width:1.64859998" id="g47" transform="matrix(0.42504,-0.43283,0.42504,0.43283,-73.158827,20.439734)"><path style="fill:#fff" id="path27" d="m 122.93,95.879 1.6918,1.6903 c 4.1191,-2.5622 3.7646,-5.4518 3.7646,-5.4518 0,0 -2.9263,-0.31977 -5.4564,3.7615"/><path style="fill:none;stroke:#231f20;stroke-width:.43619001;stroke-linecap:round;stroke-linejoin:round;stroke-miterlimit:10" id="path29" stroke-miterlimit="10" d="m 122.93,95.879 1.6918,1.6903 c 4.1191,-2.5622 3.7646,-5.4518 3.7646,-5.4518 0,0 -2.9263,-0.31977 -5.4564,3.7615 z"/><path style="fill:#d1d3d4" id="path31" d="m 122.93,95.879 -0.86876,-0.86805 1.9651,-0.64849 z"/><path style="fill:none;stroke:#231f20;stroke-width:.43619001;stroke-linecap:round;stroke-linejoin:round;stroke-miterlimit:10" id="path33" stroke-miterlimit="10" d="m 122.93,95.879 -0.86876,-0.86805 1.9651,-0.64849 z"/><path style="fill:#d1d3d4" id="path35" d="m 124.62,97.569 0.86876,0.86818 0.64902,-1.9635 z"/><path style="fill:none;stroke:#231f20;stroke-width:.43619001;stroke-linecap:round;stroke-linejoin:round;stroke-miterlimit:10" id="path37" stroke-miterlimit="10" d="m 124.62,97.569 0.86876,0.86818 0.64902,-1.9635 z"/><path style="fill:#d1d3d4" id="path39" d="m 126.47,94.904 c -0.24619,0.24585 -0.64544,0.24585 -0.89177,0 -0.24605,-0.24612 -0.24605,-0.64505 0,-0.89103 0.24633,-0.24599 0.64558,-0.24599 0.89177,0 0.24619,0.24599 0.24619,0.64491 0,0.89103"/><path style="fill:none;stroke:#231f20;stroke-width:.43619001;stroke-linecap:round;stroke-linejoin:round;stroke-miterlimit:10" id="path41" stroke-miterlimit="10" d="m 126.47,94.904 c -0.24619,0.24585 -0.64544,0.24585 -0.89177,0 -0.24605,-0.24612 -0.24605,-0.64505 0,-0.89103 0.24633,-0.24599 0.64558,-0.24599 0.89177,0 0.24619,0.24599 0.24619,0.64491 0,0.89103 z"/><path style="fill:#d1d3d4" id="path43" d="m 123.3,98.205 c -0.29041,0.29004 -1.9661,0.91375 -1.9661,0.91375 0,0 0.62394,-1.6744 0.91449,-1.9646 0.29042,-0.29004 0.76117,-0.29004 1.0516,0 0.29041,0.29017 0.29041,0.76068 0,1.0508"/><path style="fill:none;stroke:#231f20;stroke-width:.43619001;stroke-linecap:round;stroke-linejoin:round;stroke-miterlimit:10" id="path45" stroke-miterlimit="10" d="m 123.3,98.205 c -0.29041,0.29004 -1.9661,0.91375 -1.9661,0.91375 0,0 0.62394,-1.6744 0.91449,-1.9646 0.29042,-0.29004 0.76117,-0.29004 1.0516,0 0.29041,0.29017 0.29041,0.76068 0,1.0508 z"/></g><g id="g834" transform="translate(0,0.34978813)"><path id="path26" d="m 6.35,5.3164489 c 0.05508,-0.055633 0.1258665,-0.1118246 0.2016466,-0.088185 0.087432,0.031147 0.143707,0.1249854 0.1950946,0.2086331 0.1688105,0.3043255 0.3510582,0.5986046 0.5525839,0.8734752 0.2800294,0.4830895 0.5635241,0.9644866 0.877933,1.417149 0.073041,0.1057208 0.150486,0.2070666 0.2310326,0.3047395 0.043534,0.05675 0.1000366,0.1051628 0.1213421,0.1807446 -0.047,-0.00452 -0.089111,-0.030841 -0.1298008,-0.057038 C 8.2378157,8.0510933 8.0831532,7.9312031 7.9308818,7.8074961 7.8290598,7.721706 7.7424453,7.6094676 7.6302731,7.5416637 c -0.028191,-0.019247 -0.060558,-0.022793 -0.092198,-0.019391 -0.023077,0.038925 -0.027358,0.087627 -0.02082,0.1337533 0.016177,0.1340596 0.058893,0.2605933 0.098735,0.3865688 0.00846,0.024054 0.00785,0.050394 0.00822,0.076014 -0.05711,0.013431 -0.109088,-0.02562 -0.1576308,-0.055633 C 7.2937263,7.9402593 7.1365823,7.7879616 6.9906056,7.6234749 6.8465508,7.4618329 6.6919035,7.3105254 6.5197639,7.1930478 6.4838258,7.1735131 6.4394593,7.1378468 6.4009186,7.1626026 c -0.01784,0.039069 0.00607,0.084656 0.018082,0.1223028 0.062933,0.1470585 0.1483372,0.2782733 0.2206673,0.4186882 C 6.7683942,7.9493154 6.8956831,8.1982959 6.9885926,8.466667 6.7925454,8.283636 6.6035034,8.0902886 6.4185169,7.891846 6.28112,7.7493064 6.1527567,7.5945961 6.0105933,7.4587182 5.9399428,7.3939029 5.8639206,7.3282236 5.773629,7.3113716 5.6840486,7.2942495 5.5961328,7.3358573 5.5186881,7.385261 5.4141272,7.4543431 5.3168145,7.5374147 5.2191386,7.6193699 5.1260022,7.7017573 5.0307021,7.7827223 4.9494593,7.8819436 4.905804,7.9480372 4.8244251,7.9661674 4.7591162,7.9439321 4.7024929,7.926522 4.6823827,7.8489599 4.6289674,7.8253203 4.5702105,7.7968736 4.5034641,7.8179566 4.4501698,7.8533528 4.329312,7.9378468 4.2086811,8.0230608 4.0870969,8.1064203 4.4383973,7.6970762 4.7901667,7.2883081 5.1356261,6.8720144 5.4492179,6.4941056 5.7613722,6.1134781 6.0485439,5.7065465 6.1459777,5.5733512 6.2388871,5.4342145 6.35,5.3164489" style="fill:#f9f9f9;fill-opacity:1;fill-rule:nonzero;stroke:none;stroke-width:.35277772"/><path id="path30" d="M 7.6144542,6.2426041 C 7.8057506,6.0667992 8.0055967,5.8898828 8.1972413,5.7147767 c 0.2482829,0.4216489 0.5151022,0.8290245 0.8002614,1.2184054 0.14121,0.1925591 0.2921651,0.3750903 0.4449209,0.5555773 0.196169,0.2362352 0.387571,0.477694 0.5757814,0.7225771 0.06495,0.087352 0.138698,0.1655149 0.201162,0.2553302 -0.02153,-0.00851 -0.04272,-0.017855 -0.06174,-0.032005 C 10.039737,8.3475884 9.9256426,8.2536499 9.8088256,8.1647778 9.6496536,8.055308 9.5098813,7.9137102 9.355703,7.7955925 9.2614772,7.7222517 9.165829,7.645871 9.0562746,7.6070167 c -0.030218,-0.010033 -0.078277,-0.00605 -0.082801,0.039413 -0.00619,0.085011 0.031641,0.1631738 0.049375,0.2437824 0.018793,0.082967 0.080398,0.2997053 0.038886,0.3570161 C 8.9852534,8.2306617 8.8514914,8.1063923 8.8194882,8.0746653 8.5187582,7.7576654 8.3248082,7.509032 8.0443796,7.1114504 7.925326,6.9337249 7.8111664,6.7259903 7.6659509,6.5025266 7.6315715,6.4409957 7.5770023,6.3693191 7.5716458,6.299682" style="fill:#f9f9f9;fill-opacity:1;fill-rule:nonzero;stroke:none;stroke-width:.35277772"/></g></svg>