<svg xmlns="http://www.w3.org/2000/svg" xmlns:osb="http://www.openswatchbook.org/uri/2009/osb" xmlns:svg="http://www.w3.org/2000/svg" id="svg7384" width="32" height="32" version="1.1" viewBox="0 0 32 32"><metadata id="metadata90"/><title id="title9167">Gnome Symbolic Icon Theme</title><defs id="defs7386"><linearGradient id="linearGradient19282" gradientTransform="matrix(-2.7365795,0.28202934,-0.18908311,-0.99988321,239.54008,-879.45557)" osb:paint="solid"><stop style="stop-color:#666;stop-opacity:1" id="stop19284" offset="0"/></linearGradient></defs><g id="g11728" transform="matrix(2,0,0,2,-522.0004,-1086)" style="display:inline;stroke-width:1;opacity:.54"><rect style="fill:none;stroke:none;stroke-width:1" id="rect11724" width="16" height="16" x="20" y="326" transform="translate(241.0002,217)"/><path style="fill:#000;fill-opacity:1;stroke:none;stroke-width:1" id="path11726" d="m 265.69612,545.23396 c -3.58218,0 -4.66582,1.39975 -4.66582,1.39975 v 10.04946 c 0,0 1.08364,-1.07673 4.66582,-1.07673 2.9161,0 4.47225,1.07673 7.17818,1.07673 2.08923,0 3.19429,-1.39975 3.19429,-1.39975 v -10.04946 c 0,0 -1.14095,1.04084 -3.23018,1.04084 -3.3734,0 -3.97619,-1.04084 -7.14229,-1.04084 z m 2.93145,2.77148 c 1.32876,0 2.375,1.08037 2.375,2.4375 0,1.35713 -1.04624,2.46875 -2.375,2.46875 -1.32876,0 -2.40625,-1.11162 -2.40625,-2.46875 0,-1.35713 1.07749,-2.4375 2.40625,-2.4375 z m -4.5625,0.96875 0.96875,1.03125 -0.9375,-0.0312 0.9375,1 -0.96875,-0.0312 0.96875,1.03125 -1,-0.0312 0.0312,-1 h -0.0312 l 0.0312,-0.9688 h -0.0312 z m 4.5625,0 c -0.794,0 -1.46875,0.6578 -1.46875,1.46875 0,0.81095 0.67475,1.46875 1.46875,1.46875 0.79399,0 1.4375,-0.6578 1.4375,-1.46875 0,-0.81095 -0.64351,-1.46875 -1.4375,-1.46875 z m 4.375,0 v 1 l 0.0312,0.96875 h -0.0312 l 0.0312,1 -1,0.0312 0.96875,-1.03125 -0.96875,0.0312 0.9375,-1 -0.9375,0.0312 z m -7.9375,2.96875 0.96875,1.03125 -1,-0.0312 z m 6.9375,0 0.0312,1 -1,0.0312 z m -5.9375,1 0.96875,1.03125 -1,-0.0312 z m 4.9375,0 0.0312,1 -1,0.0312 z"/></g></svg>