<svg xmlns="http://www.w3.org/2000/svg" xmlns:osb="http://www.openswatchbook.org/uri/2009/osb" xmlns:svg="http://www.w3.org/2000/svg" id="svg11300" width="24" height="24" version="1.0" style="display:inline;enable-background:new"><defs id="defs3"><linearGradient id="selected_bg_color" osb:paint="solid"><stop style="stop-color:#5294e2;stop-opacity:1" id="stop4140" offset="0"/></linearGradient></defs><metadata id="metadata4"/><g style="display:inline" id="layer1" transform="translate(0,-276)"><path style="display:inline;fill:#383838;fill-opacity:1;fill-rule:evenodd;stroke-width:.20028363;enable-background:new" id="path121" d="m 14.650304,281.88776 c 0.620878,-0.77302 1.041834,-1.82329 0.92569,-2.88776 -0.894246,0.0375 -2.008404,0.62113 -2.653878,1.37165 -0.570167,0.66588 -1.076685,1.75428 -0.945499,2.78022 1.003541,0.0749 2.031336,-0.5078 2.673646,-1.26403 z m 2.262563,6.68786 c -0.02145,-2.2764 1.862638,-3.38167 1.947958,-3.43437 -1.065909,-1.55571 -2.718649,-1.76653 -3.301395,-1.78574 -1.388986,-0.14152 -2.73355,0.83455 -3.442114,0.83455 -0.721121,-1e-4 -1.810143,-0.81766 -2.9830046,-0.79441 -1.5117804,0.0226 -2.9274451,0.89797 -3.7024427,2.25353 -1.5954995,2.7706 -0.4060754,6.83989 1.1263547,9.07398 0.7676472,1.09975 1.6618734,2.32383 2.8347546,2.27546 1.147124,-0.0436 1.57477,-0.72834 2.961253,-0.72834 1.371964,0 1.773853,0.72834 2.970827,0.70491 1.231826,-0.0202 2.006542,-1.10173 2.747592,-2.20603 0.882569,-1.25975 1.238934,-2.49475 1.253154,-2.56053 -0.02746,-0.0102 -2.387701,-0.9078 -2.412937,-3.63301 z"/></g></svg>