<svg xmlns="http://www.w3.org/2000/svg" xmlns:osb="http://www.openswatchbook.org/uri/2009/osb" xmlns:svg="http://www.w3.org/2000/svg" id="svg2" width="40" height="24" version="1.1" viewBox="0 0 40 24"><defs id="defs4"><filter style="color-interpolation-filters:sRGB" id="n" width="1.192" height="1.192" x="-.096" y="-.096"><feGaussianBlur id="feGaussianBlur72" stdDeviation=".72"/></filter><linearGradient id="selected_fg_color" osb:paint="solid"><stop id="stop21" offset="0" stop-color="#ffffffgit"/></linearGradient></defs><metadata id="metadata7"/><g id="layer1" transform="translate(0,-1028.3622)"><g style="display:inline;opacity:.5" id="switch-insensitive" transform="translate(-53.375999,1144.0022)"><rect style="opacity:0;stroke-width:.87706" id="rect579" width="40" height="24" x="53.376" y="-115.64"/><g id="g587" transform="translate(-125.01,5.2981)"><path style="fill:#b3b3b3" id="path581" d="m 190.39,-119.94 h 16 c 6.094,0 11,4.46 11,10 0,5.54 -4.906,10 -11,10 h -16 c -6.094,0 -11,-4.46 -11,-10 0,-5.54 4.906,-10 11,-10 z"/><circle style="opacity:.25;filter:url(#n)" id="circle583" cx="221.26" cy="-108.14" r="9" transform="matrix(0.97875,0,0,0.97875,-26.23,-3.5914)"/><circle style="fill:#fff" id="circle585" cx="221.26" cy="-108.14" r="9" transform="matrix(0.92593,0,0,0.92593,-15.153,-9.8037)"/></g></g></g></svg>