<svg xmlns="http://www.w3.org/2000/svg" xmlns:svg="http://www.w3.org/2000/svg" id="svg2" width="12" height="13" version="1.1"><metadata id="metadata7"/><g id="layer1" transform="translate(-671.14288,-651.57648)"><g id="g4090" transform="matrix(0.1265625,0,0,-0.1265625,672.07092,663.09636)"><g id="g4092" transform="scale(0.1,0.1)"><g id="g4195" transform="matrix(9.9999999,0,0,9.9999999,3.1284009,-0.36309974)"><g id="g4197" transform="scale(0.1,0.1)"><path id="path4199" d="m 398.7018,-31.874244 c 240.0053,0 434.56818,194.560354 434.56818,434.569774 0,240.00229 -194.56288,434.56602 -434.56818,434.56602 -240.00428,0 -434.567633,-194.56373 -434.567633,-434.56602 0,-240.00942 194.563353,-434.569774 434.567633,-434.569774" style="fill:#5b5c63;fill-opacity:1;fill-rule:evenodd;stroke:none;stroke-width:1"/><path id="path4201" d="m 398.7018,5.0845881 c 219.592,0 397.60909,178.0149219 397.60909,397.6109419 0,219.58788 -178.01709,397.60677 -397.60909,397.60677 C 179.11082,800.3023 1.092816,622.28341 1.092816,402.69553 1.092816,183.09951 179.11082,5.0845881 398.7018,5.0845881" style="fill:#5b5c63;fill-opacity:1;fill-rule:evenodd;stroke:none;stroke-width:1"/></g></g></g></g></g></svg>