<svg xmlns="http://www.w3.org/2000/svg" xmlns:svg="http://www.w3.org/2000/svg" id="svg2" width="16" height="16" version="1.1"><metadata id="metadata7"/><g id="layer1" transform="translate(-671.14288,-648.57648)"><g id="g4090" transform="matrix(0.1265625,0,0,-0.1265625,672.07092,663.09636)"><g id="g4092" transform="scale(0.1,0.1)"><g id="g4285" transform="matrix(9.9999999,0,0,9.9999999,-4.0034923,0.11816995)"><g id="g4287" transform="scale(0.1,0.1)"><g id="g4413" transform="matrix(10,0,0,10,4.1388913,2.0175489)"><g id="g4415" transform="scale(0.1,0.1)"><path id="path4417" d="m 558.01426,-102.00717 c 349.09859,0 632.09914,283.00019 632.09914,632.09876 0,349.09267 -283.00055,632.09331 -632.09914,632.09331 -349.09709,0 -632.098402,-283.00064 -632.098402,-632.09331 0,-349.09857 283.001312,-632.09876 632.098402,-632.09876" style="fill:#232831;fill-opacity:1;fill-rule:evenodd;stroke:none;stroke-width:1.14285207"/><path id="path4419" d="m 558.63936,8.2829618 c 283.64212,0 513.57764,229.9370582 513.57764,513.5831182 0,283.64081 -229.93552,513.57752 -513.57764,513.57752 -283.64081,0 -513.582854,-229.93671 -513.582854,-513.57752 0,-283.64606 229.942044,-513.5831182 513.582854,-513.5831182" style="fill:#ebcb8b;fill-opacity:1;fill-rule:evenodd;stroke:none"/></g></g></g></g></g></g></g></svg>