<svg xmlns="http://www.w3.org/2000/svg" xmlns:svg="http://www.w3.org/2000/svg" id="svg2" width="400" height="120" version="1.1"><defs id="defs4"><filter style="color-interpolation-filters:sRGB" id="filter4198" width="1.031" height="1.107" x="-.015" y="-.053"><feGaussianBlur id="feGaussianBlur4200" stdDeviation="2.45"/></filter></defs><metadata id="metadata7"/><g id="layer1" transform="translate(0,-932.36218)"><path id="rect4142-3" d="m 12,942.36212 376,0 c 1.108,0 2,0.892 2,2 l 0,108.00008 -380,0 0,-108.00008 c 0,-1.108 0.892,-2 2,-2 z" style="color:#000;clip-rule:nonzero;display:inline;overflow:visible;visibility:visible;opacity:1;isolation:auto;mix-blend-mode:normal;color-interpolation:sRGB;color-interpolation-filters:linearRGB;solid-color:#000;solid-opacity:1;fill:#000;fill-opacity:.36000001;fill-rule:evenodd;stroke:none;stroke-width:2;stroke-linecap:round;stroke-linejoin:miter;stroke-miterlimit:4;stroke-dasharray:none;stroke-dashoffset:0;stroke-opacity:1;color-rendering:auto;image-rendering:auto;shape-rendering:auto;text-rendering:auto;enable-background:accumulate;filter:url(#filter4198)"/><path id="rect4142" d="m 12,942.36218 376,0 c 1.108,0 2,0.892 2,2 l 0,108.00002 -380,0 0,-108.00002 c 0,-1.108 0.892,-2 2,-2 z" style="color:#000;clip-rule:nonzero;display:inline;overflow:visible;visibility:visible;opacity:1;isolation:auto;mix-blend-mode:normal;color-interpolation:sRGB;color-interpolation-filters:linearRGB;solid-color:#000;solid-opacity:1;fill:#fafbfc;fill-opacity:1;fill-rule:evenodd;stroke:none;stroke-width:2;stroke-linecap:round;stroke-linejoin:miter;stroke-miterlimit:4;stroke-dasharray:none;stroke-dashoffset:0;stroke-opacity:1;color-rendering:auto;image-rendering:auto;shape-rendering:auto;text-rendering:auto;enable-background:accumulate"/><g id="g4156" transform="translate(-19.99979,14.00368)"><path style="color:#000;font-style:normal;font-variant:normal;font-weight:400;font-stretch:normal;font-size:medium;line-height:normal;font-family:Sans;-inkscape-font-specification:Sans;text-indent:0;text-align:start;text-decoration:none;text-decoration-line:none;letter-spacing:normal;word-spacing:normal;text-transform:none;direction:ltr;block-progression:tb;writing-mode:lr-tb;baseline-shift:baseline;text-anchor:start;display:inline;overflow:visible;visibility:visible;opacity:.87;fill:#263238;fill-opacity:1;stroke:none;stroke-width:2;marker:none;enable-background:accumulate" id="path8476" d="m 199.69204,972.08105 0,30.84975 c 1.8e-4,1.7947 1.75906,3.4276 3.69225,3.4277 l 29.538,0 3.69226,0 c 1.93318,-1e-4 3.69206,-1.633 3.69225,-3.4277 l 0,-30.84975 z"/><path style="color:#000;font-style:normal;font-variant:normal;font-weight:400;font-stretch:normal;font-size:medium;line-height:normal;font-family:Sans;-inkscape-font-specification:Sans;text-indent:0;text-align:start;text-decoration:none;text-decoration-line:none;letter-spacing:normal;word-spacing:normal;text-transform:none;direction:ltr;block-progression:tb;writing-mode:lr-tb;baseline-shift:baseline;text-anchor:start;display:inline;overflow:visible;visibility:visible;opacity:.87;fill:#263238;fill-opacity:1;stroke:none;stroke-width:2;marker:none;enable-background:accumulate" id="path8478" d="m 195.99979,965.22556 0,3.42775 48,-0.0103 -7.4e-4,-3.41746 c 0,-3.42775 -3.69152,-3.43927 -3.69152,-3.43927 l -11.07675,0 c 0,0 0,-3.42775 -3.69225,-3.42775 l -11.07675,0 c -3.69225,0 -3.69225,3.42775 -3.69225,3.42775 l -11.07676,0 c 0,0 -3.69298,0.0103 -3.69298,3.43927 z"/></g></g></svg>