<svg xmlns="http://www.w3.org/2000/svg" xmlns:svg="http://www.w3.org/2000/svg" id="svg2" width="16" height="16" version="1.1"><metadata id="metadata7"/><g id="layer1" transform="translate(-671.14288,-648.57648)"><g id="g4090" transform="matrix(0.1265625,0,0,-0.1265625,672.07092,663.09636)"><g id="g4092" transform="scale(0.1,0.1)"><path id="path4094" d="m 564.89251,-113.74869 c 349.09263,0 632.09319,283.00099 632.09319,632.09804 0,349.09856 -283.00056,632.09915 -632.09319,632.09915 -349.10297,0 -632.104326,-283.00059 -632.104326,-632.09915 0,-349.09705 283.001356,-632.09804 632.104326,-632.09804" style="fill:#232831;fill-opacity:1;fill-rule:evenodd;stroke:none;stroke-width:1.14285719"/><path id="path4096" d="m 558.77747,1.5676633 c 283.63699,0 513.57493,229.9429467 513.57493,513.5851867 0,283.64355 -229.93794,513.58155 -513.57493,513.58155 -283.64749,0 -513.585581,-229.938 -513.585581,-513.58155 0,-283.64224 229.938091,-513.5851867 513.585581,-513.5851867" style="fill:#bf616a;fill-opacity:1;fill-rule:evenodd;stroke:none"/></g></g></g></svg>