<svg xmlns="http://www.w3.org/2000/svg" xmlns:svg="http://www.w3.org/2000/svg" id="svg2" width="16" height="16" version="1.1"><metadata id="metadata7"/><g id="layer1" transform="translate(-671.14288,-648.57648)"><g id="g4090" transform="matrix(0.1265625,0,0,-0.1265625,672.07092,663.09636)"><g id="g4092" transform="scale(0.1,0.1)"><g id="g4285" transform="matrix(9.9999999,0,0,9.9999999,-4.0034923,0.11816995)"><g id="g4287" transform="scale(0.1,0.1)"><path id="path4289" d="m 563.58759,-119.38766 c 349.0926,0 632.09311,283.00097 632.09311,632.098 0,349.09852 -283.00051,632.09906 -632.09311,632.09906 -349.10297,0 -632.104441,-283.00054 -632.104441,-632.09906 0,-349.09703 283.001471,-632.098 632.104441,-632.098" style="fill:#232831;fill-opacity:1;fill-rule:evenodd;stroke:none;stroke-width:1.14285719"/><path id="path4291" d="m 556.52193,-11.060771 c 283.64075,0 513.57747,229.941751 513.57747,513.582491 0,283.64206 -229.93672,513.57878 -513.57747,513.57878 -283.646,0 -513.583018,-229.93672 -513.583018,-513.57878 0,-283.64074 229.937018,-513.582491 513.583018,-513.582491" style="fill:#a3be8c;fill-opacity:1;fill-rule:evenodd;stroke:none"/><path style="fill:#232831;fill-opacity:1;fill-rule:evenodd;stroke:none;stroke-width:1.31324911" id="path4293" d="m 403.81614,794.35778 h 350.89887 c 46.7241,0 84.95672,-38.2326 84.95672,-84.9606 V 358.50221 Z M 708.91545,221.50405 H 356.63241 c -46.72935,0 -84.95672,38.22737 -84.95672,84.95541 V 658.74378 L 708.91545,221.50405"/></g></g></g></g></g></svg>