<svg xmlns="http://www.w3.org/2000/svg" xmlns:svg="http://www.w3.org/2000/svg" id="svg6" width="96" height="40" version="1.1"><metadata id="metadata12"/><g id="g4" transform="matrix(6,0,0,6,-2352,-223)" style="fill:#fff;stroke-width:.16666667"><path id="path2" d="m 408,38 c -0.874,0.69 -1.757,1.397 -2.656,2.008 -1,0.679 -1.972,1.287 -2.912,1.825 -0.868,0.497 -1.774,0.87 -2.432,1.167 -0.658,-0.297 -1.564,-0.67 -2.432,-1.167 a 44.819,44.819 0 0 1 -2.912,-1.825 C 393.756,39.398 392.874,38.691 392,38 h 1.49 c 0.524,0.4 1.062,0.837 1.625,1.222 0.71,0.486 1.437,0.942 2.18,1.37 0.755,0.433 1.792,0.95 2.5,1.285 h 10e-4 l 0.204,0.096 0.203,-0.096 c 0.71,-0.334 1.747,-0.852 2.501,-1.285 0.744,-0.428 1.47,-0.884 2.181,-1.37 0.562,-0.385 1.1,-0.822 1.625,-1.222 z" style="fill:#fff;stroke-width:.16666667"/></g></svg>