<svg xmlns="http://www.w3.org/2000/svg" xmlns:svg="http://www.w3.org/2000/svg" id="svg8" width="32" height="32" version="1.1" viewBox="0 0 8.467 8.467"><metadata id="metadata5"/><g id="layer1" transform="translate(0,-288.53334)"><path id="path831-6" d="m 1.3229165,291.70834 h 5.8208328 m -5.8208328,2.11667 h 5.8208329 m -1.5874792,-1.05835 a 1.3229371,3.1750205 0 0 1 -1.3229371,3.17502 1.3229371,3.1750205 0 0 1 -1.3229371,-3.17502 1.3229371,3.1750205 0 0 1 1.3229371,-3.17502 1.3229371,3.1750205 0 0 1 1.3229371,3.17502 m 1.8520669,0 a 3.175004,3.175004 0 0 1 -3.175004,3.17501 3.175004,3.175004 0 0 1 -3.175004,-3.17501 3.175004,3.175004 0 0 1 3.175004,-3.175 3.175004,3.175004 0 0 1 3.175004,3.175 z" style="fill:none;stroke:#111;stroke-width:.52916664;stroke-linecap:butt;stroke-linejoin:miter;stroke-miterlimit:4;stroke-dasharray:none;stroke-opacity:1;fill-opacity:1"/></g></svg>