<svg xmlns="http://www.w3.org/2000/svg" xmlns:osb="http://www.openswatchbook.org/uri/2009/osb" xmlns:svg="http://www.w3.org/2000/svg" id="svg2" width="40" height="24" version="1.1" viewBox="0 0 40 24"><defs id="defs4"><filter style="color-interpolation-filters:sRGB" id="m" width="1.192" height="1.192" x="-.096" y="-.096"><feGaussianBlur id="feGaussianBlur75" stdDeviation=".72"/></filter><linearGradient id="selected_fg_color" osb:paint="solid"><stop id="stop21" offset="0" stop-color="#ffffffgit"/></linearGradient></defs><metadata id="metadata7"/><g id="layer1" transform="translate(0,-1028.3622)"><g style="display:inline" id="switch-active" transform="translate(-6,1094.0002)"><rect style="opacity:0;stroke-width:.87706" id="rect524" width="40" height="24" x="6" y="-65.638"/><g id="g532" transform="translate(-172.39,55.298)"><path style="fill:#315bef;fill-opacity:1" id="path526" d="m 190.39,-119.94 h 16 c 6.094,0 11,4.46 11,10 0,5.54 -4.906,10 -11,10 h -16 c -6.094,0 -11,-4.46 -11,-10 0,-5.54 4.906,-10 11,-10 z"/><circle style="opacity:.3;filter:url(#m)" id="circle528" cx="221.26" cy="-108.14" r="9" transform="matrix(0.93214,0,0,0.93214,0.14024,-8.1317)"/><circle style="fill:#fff" id="circle530" cx="221.26" cy="-108.14" r="9" transform="matrix(0.92593,0,0,0.92593,2.1887,-9.8037)"/></g></g></g></svg>