<svg xmlns="http://www.w3.org/2000/svg" xmlns:svg="http://www.w3.org/2000/svg" id="svg18" width="62" height="62" version="1.1" viewBox="0 0 62 62"><metadata id="metadata22"/><defs id="defs8"><clipPath id="clipPath10504-2-2"><path id="path2" fill="#f0f" d="m4 24c-2.216 0-4 1.784-4 4v56c0 2.216 1.784 4 4 4h56c2.216 0 4-1.784 4-4v-56c0-2.216-1.784-4-4-4h-56zm6 6h44c2.216 0 4 1.784 4 4v44c0 2.216-1.784 4-4 4h-44c-2.216 0-4-1.784-4-4v-44c0-2.216 1.784-4 4-4z" color="#000" opacity=".2"/></clipPath><filter id="filter3845"><feGaussianBlur id="feGaussianBlur5" stdDeviation="1.82"/></filter></defs></svg>