<svg xmlns="http://www.w3.org/2000/svg" width="200" height="200" version="1.1" viewBox="0 0 200 200"><defs><clipPath id="clipPath5057-1"><path fill="#f0f" d="m427.33 22.027v69.333h69.333v-69.333h-69.333zm13.119 9.0133h43.095c2.2762 0 4.1058 1.8296 4.1058 4.1058v43.095c0 2.2762-1.8296 4.1058-4.1058 4.1058h-43.095c-2.2762 0-4.1058-1.8296-4.1058-4.1058v-43.095c0-2.2762 1.8296-4.1058 4.1058-4.1058z" color="#000"/></clipPath><filter id="filter5061-6" width="1.264" height="1.264" x="-.132" y="-.132" color-interpolation-filters="sRGB"><feGaussianBlur stdDeviation="2.86"/></filter><filter id="filter5067-0" color-interpolation-filters="sRGB"><feGaussianBlur stdDeviation="1.3"/></filter></defs><g><g fill="none" transform="translate(-977.14 -1069.5) translate(.14286 529.51)"><rect width="52" height="52" x="436" y="30.693" stroke="#fff" stroke-width="2.773" clip-path="url(#clipPath5057-1)" color="#000" filter="url(#filter5061-6)" ry="4" transform="matrix(2.8846 0 0 2.8846 -255.69 476.46)"/><rect width="52" height="52" x="436" y="30.693" stroke="#fff" stroke-width="1.387" clip-path="url(#clipPath5057-1)" color="#000" filter="url(#filter5067-0)" ry="4" transform="matrix(2.8846 0 0 2.8846 -255.69 476.46)"/><rect width="200" height="200" x="977" y="540" color="#000" opacity=".316"/></g></g></svg>