<svg xmlns="http://www.w3.org/2000/svg" width="150" height="150" version="1.1" viewBox="0 0 150 150"><defs><clipPath id="clipPath4339-04"><path fill="#f0f" d="m440 80.684c-1.8496 0-3.3164 1.4668-3.3164 3.3164v44c0 1.8496 1.4668 3.3164 3.3164 3.3164h44c1.8496 0 3.3164-1.4668 3.3164-3.3164v-44c0-1.8496-1.4668-3.3164-3.3164-3.3164h-44z" color="#000" opacity=".3"/></clipPath><filter id="filter5360-1" width="1.48" height="1.48" x="-.24" y="-.24" color-interpolation-filters="sRGB"><feGaussianBlur stdDeviation="5"/></filter></defs><g><g transform="translate(-516.43 -1068.8) translate(-265.57 503.79)"><rect width="148" height="148" x="783" y="566" fill="#cfcfcf" color="#000" ry="12"/><path fill="none" stroke="#180c1c" stroke-width=".867" d="m440 81.002c-1.6787 0-2.998 1.3194-2.998 2.998v44c0 1.6787 1.3194 2.998 2.998 2.998h44c1.6787 0 2.998-1.3194 2.998-2.998v-44c0-1.6787-1.3194-2.998-2.998-2.998h-44z" clip-path="url(#clipPath4339-04)" color="#000" filter="url(#filter5360-1)" opacity=".2" transform="matrix(2.8846 0 0 2.8846 -475.69 334.23)"/><rect width="150" height="150" x="782" y="565" fill="none" color="#000" opacity=".316"/></g></g></svg>